{"title":"Geordie Shore Season 8 EP2 1080P WEB-DL","uid":10665265,"size":1570308047,"categoryP":"video","categoryS":"hd___tv_shows","magnet":"?xt=urn:btih:97ef5f060a92a8b4cfb37b9a6f709618f47ab72c&amp;dn=Geordie+Shore+Season+8+EP2+1080P+WEB-DL&amp;tr=udp%3A%2F%2Ftracker.openbittorrent.com%3A80&amp;tr=udp%3A%2F%2Fopen.demonii.com%3A1337&amp;tr=udp%3A%2F%2Ftracker.coppersurfer.tk%3A6969&amp;tr=udp%3A%2F%2Fexodus.desync.com%3A6969","seeders":6,"leechers":0,"uploader":"jmanwf","files":-1,"time":1406787840,"description":"Gary isn't impressed with Marnie flirting with Aaron. Vicky makes her return to the\n\nhouse. The Geordies put their own spin on singles night.\n\n\n\n\nFormat : MPEG-4\nFormat profile : Base Media / Version 2\nCodec ID : mp42\nFile size : 1.46 GiB\nDuration : 41mn 57s\nOverall bit rate mode : Variable\nOverall bit rate : 4 989 Kbps\nMovie name : 802\nAlbum : Geordie Shore, Season 8\nPart/Position : 1\nPart/Total : 1\nTrack name/Position : 2\nTrack name/Total : 11\n\nVideo\nID : 2\nFormat : AVC\nFormat/Info : Advanced Video Codec\nFormat profile : &lt;a class=&quot;__cf_email__&quot; href=&quot;/cdn-cgi/l/email-protection&quot; data-cfemail=&quot;afe7c6c8c7efe39b819f&quot;&gt;[email&amp;#160;protected]&lt;/a&gt;&lt;script cf-hash='f9e31' type=&quot;text/javascript&quot;&gt;\n/* &lt;![CDATA[ */!function(){try{var t=&quot;currentScript&quot;in document?document.currentScript:function(){for(var t=document.getElementsByTagName(&quot;script&quot;),e=t.length;e--;)if(t[e].getAttribute(&quot;cf-hash&quot;))return t[e]}();if(t&amp;&amp;t.previousSibling){var e,r,n,i,c=t.previousSibling,a=c.getAttribute(&quot;data-cfemail&quot;);if(a){for(e=&quot;&quot;,r=parseInt(a.substr(0,2),16),n=2;a.length-n;n+=2)i=parseInt(a.substr(n,2),16)^r,e+=String.fromCharCode(i);e=document.createTextNode(e),c.parentNode.replaceChild(e,c)}}}catch(u){}}();/* ]]&gt; */&lt;/script&gt;\nFormat settings, CABAC : Yes\nFormat settings, ReFrames : 4 frames\nCodec ID : avc1\nCodec ID/Info : Advanced Video Coding\nDuration : 41mn 57s\nBit rate : 4 857 Kbps\nWidth : 1 920 pixels\nHeight : 1 080 pixels\nDisplay aspect ratio : 16:9\nFrame rate : 25.000 fps\nColor space : YUV\nChroma subsampling : 4:2:0\nBit depth : 8 bits\nScan type : Progressive\nBits/(Pixel*Frame) : 0.094\nStream size : 1.42 GiB (97%)\nLanguage : English\nEncoded date : UTC 2014-07-30 21:00:59\nTagged date : UTC 2014-07-30 21:01:55\nColor primaries : BT.709\nTransfer characteristics : BT.709\nMatrix coefficients : BT.709\n\nAudio\nID : 1\nFormat : AAC\nFormat/Info : Advanced Audio Codec\nFormat profile : LC\nCodec ID : 40\nDuration : 41mn 57s\nBit rate mode : Variable\nBit rate : 128 Kbps\nMaximum bit rate : 204 Kbps\nChannel(s) : 2 channels\nChannel positions : Front: L R\nSampling rate : 48.0 KHz\nCompression mode : Lossy\nStream size : 38.3 MiB (3%)\nLanguage : English\nEncoded date : UTC 2014-07-30 20:58:53\nTagged date : UTC 2014-07-30 21:00:58\n\n\n\n\n &lt;a href=&quot;\nhttp://www.imdb.com/title/tt1960255/&quot; rel=&quot;nofollow&quot; target=&quot;_NEW&quot;&gt;\nhttp://www.imdb.com/title/tt1960255/&lt;/a&gt;","torrent":{"xt":"urn:btih:97ef5f060a92a8b4cfb37b9a6f709618f47ab72c","amp;dn":"Geordie+Shore+Season+8+EP2+1080P+WEB-DL","amp;tr":["udp%3A%2F%2Ftracker.openbittorrent.com%3A80","udp%3A%2F%2Fopen.demonii.com%3A1337","udp%3A%2F%2Ftracker.coppersurfer.tk%3A6969","udp%3A%2F%2Fexodus.desync.com%3A6969"],"infoHash":"97ef5f060a92a8b4cfb37b9a6f709618f47ab72c","infoHashBuffer":{"type":"Buffer","data":[151,239,95,6,10,146,168,180,207,179,123,154,111,112,150,24,244,122,183,44]},"announce":[],"urlList":[]}}